<svg width="1728" height="1117" viewBox="0 0 1728 1117" fill="none" xmlns="http://www.w3.org/2000/svg">
<g clip-path="url(#clip0_62_1448)">
<rect width="1728" height="1117" fill="#6D7DFF"/>
<path fill-rule="evenodd" clip-rule="evenodd" d="M1088.46 1127.97C1086.03 1274.68 1028.98 1420.67 917.238 1532.83C802.828 1647.67 652.732 1705.3 502.5 1705.68C502.292 1555.42 559.37 1405.07 673.802 1290.21C788.157 1175.43 938.165 1117.79 1088.33 1117.36C1088.15 967.148 1145.23 816.859 1259.63 702.034C1374.04 587.198 1524.13 529.559 1674.37 529.186C1674.57 679.447 1617.5 829.793 1503.06 944.652C1392.15 1055.98 1247.69 1113.55 1102.09 1117.31C1247.74 1120.49 1392.45 1177.53 1503.8 1288.47C1618.64 1402.88 1676.27 1552.97 1676.65 1703.2C1526.39 1703.41 1376.04 1646.33 1261.18 1531.9C1149.1 1420.24 1091.5 1274.57 1088.46 1127.97ZM1088.31 1117.23C938.046 1117.43 787.7 1060.36 672.841 945.923C558.005 831.514 500.366 681.418 499.993 531.187C650.254 530.978 800.6 588.057 915.458 702.489C1030.3 816.898 1087.93 966.994 1088.31 1117.23Z" fill="#3D3D3D" fill-opacity="0.05"/>
<path fill-rule="evenodd" clip-rule="evenodd" d="M476.259 403.194C476.038 408.412 473.94 413.565 469.964 417.556C465.747 421.789 460.216 423.913 454.68 423.928C454.672 418.389 456.776 412.847 460.994 408.612C465.045 404.546 470.31 402.425 475.628 402.252C470.306 402.102 465.028 400.001 460.958 395.946C456.726 391.73 454.601 386.198 454.587 380.661C460.126 380.654 465.668 382.758 469.902 386.976C473.895 390.953 476.011 396.101 476.251 401.319C476.472 396.1 478.569 390.946 482.546 386.954C486.763 382.722 492.294 380.597 497.831 380.583C497.839 386.122 495.735 391.664 491.516 395.898C487.507 399.922 482.309 402.041 477.048 402.252C482.314 402.441 487.524 404.541 491.551 408.553C495.783 412.769 497.908 418.301 497.922 423.838C492.383 423.846 486.841 421.742 482.607 417.523C478.618 413.549 476.501 408.407 476.259 403.194Z" fill="#EB420E"/>
<path fill-rule="evenodd" clip-rule="evenodd" d="M967.364 744.56C963.392 748.546 961.411 753.764 961.418 758.979C966.632 758.966 971.841 756.965 975.811 752.98C979.783 748.994 981.764 743.776 981.756 738.561C976.543 738.574 971.334 740.574 967.364 744.56ZM946.596 765.427C942.625 769.413 940.644 774.632 940.651 779.847C945.865 779.834 951.074 777.833 955.045 773.848C959.017 769.861 960.998 764.643 960.991 759.428C955.777 759.441 950.567 761.441 946.596 765.427ZM960.984 758.97C955.769 758.977 950.551 756.996 946.564 753.025C942.579 749.054 940.578 743.845 940.565 738.631C945.78 738.623 950.999 740.604 954.985 744.576C958.971 748.547 960.971 753.756 960.984 758.97ZM975.844 765.367C979.83 769.338 981.83 774.547 981.843 779.761C976.628 779.768 971.411 777.787 967.424 773.816C963.439 769.845 961.438 764.636 961.425 759.422C966.64 759.415 971.858 761.396 975.844 765.367Z" fill="#011189"/>
<path fill-rule="evenodd" clip-rule="evenodd" d="M1254.76 357.124C1254.68 362.216 1252.7 367.284 1248.82 371.177C1244.85 375.163 1239.64 377.164 1234.42 377.176C1234.42 371.961 1236.4 366.743 1240.37 362.757C1244.34 358.773 1249.55 356.772 1254.76 356.758C1254.76 356.756 1254.76 356.753 1254.76 356.751C1254.76 356.751 1254.76 356.751 1254.76 356.751C1254.75 351.54 1256.73 346.327 1260.7 342.343C1264.67 338.358 1269.88 336.358 1275.1 336.344C1275.1 341.559 1273.12 346.777 1269.15 350.764C1265.3 354.627 1260.29 356.626 1255.24 356.756C1260.29 356.867 1265.31 358.846 1269.18 362.696C1273.16 366.667 1275.16 371.876 1275.18 377.09C1269.96 377.098 1264.74 375.117 1260.76 371.145C1256.87 367.269 1254.87 362.213 1254.76 357.124ZM1254.76 356.753C1249.54 356.761 1244.32 354.78 1240.34 350.808C1236.35 346.837 1234.35 341.628 1234.34 336.414C1239.55 336.407 1244.77 338.388 1248.76 342.359C1252.74 346.33 1254.74 351.539 1254.76 356.753Z" fill="#A2BF00"/>
<path fill-rule="evenodd" clip-rule="evenodd" d="M-83.5406 314.969C-85.9695 461.68 -143.023 607.673 -254.762 719.83C-369.172 834.666 -519.268 892.305 -669.5 892.678C-669.708 742.417 -612.63 592.071 -498.198 477.213C-383.843 362.43 -233.835 304.792 -83.6741 304.364C-83.8479 154.148 -26.7692 3.8587 87.6281 -110.966C202.038 -225.802 352.134 -283.441 502.366 -283.814C502.574 -133.553 445.496 16.7928 331.064 131.652C220.147 242.982 75.6906 300.554 -69.9141 304.306C75.7358 307.493 220.445 364.526 331.8 475.467C446.636 589.877 504.275 739.972 504.649 890.204C354.387 890.412 204.041 833.334 89.1824 718.902C-22.901 607.235 -80.4959 461.573 -83.5406 314.969ZM-83.6927 304.226C-233.954 304.434 -384.3 247.355 -499.159 132.923C-613.995 18.514 -671.633 -131.582 -672.007 -281.813C-521.746 -282.022 -371.4 -224.943 -256.541 -110.511C-141.705 3.89812 -84.0665 153.994 -83.6927 304.226Z" fill="#3D3D3D" fill-opacity="0.05"/>
</g>
<defs>
<clipPath id="clip0_62_1448">
<rect width="1728" height="1117" fill="white"/>
</clipPath>
</defs>
</svg>
