<svg width="135" height="27" viewBox="0 0 135 27" fill="none" xmlns="http://www.w3.org/2000/svg">
<path d="M9.11984 22.3C7.85984 22.3 6.71984 22.09 5.69984 21.67C4.67984 21.23 3.80984 20.64 3.08984 19.9C2.36984 19.14 1.80984 18.28 1.40984 17.32C1.02984 16.34 0.839844 15.31 0.839844 14.23C0.839844 12.73 1.16984 11.36 1.82984 10.12C2.50984 8.87998 3.46984 7.88997 4.70984 7.14997C5.96984 6.38997 7.44984 6.00997 9.14984 6.00997C10.8698 6.00997 12.3398 6.38997 13.5598 7.14997C14.7798 7.88997 15.7098 8.87998 16.3498 10.12C17.0098 11.34 17.3398 12.66 17.3398 14.08C17.3398 14.32 17.3298 14.57 17.3098 14.83C17.2898 15.07 17.2698 15.27 17.2498 15.43H5.09984C5.17984 16.23 5.40984 16.93 5.78984 17.53C6.18984 18.13 6.68984 18.59 7.28984 18.91C7.90984 19.21 8.56984 19.36 9.26984 19.36C10.0698 19.36 10.8198 19.17 11.5198 18.79C12.2398 18.39 12.7298 17.87 12.9898 17.23L16.4398 18.19C16.0598 18.99 15.5098 19.7 14.7898 20.32C14.0898 20.94 13.2598 21.43 12.2998 21.79C11.3398 22.13 10.2798 22.3 9.11984 22.3ZM5.00984 12.88H13.2298C13.1498 12.08 12.9198 11.39 12.5398 10.81C12.1798 10.21 11.6998 9.74998 11.0998 9.42998C10.4998 9.08998 9.82984 8.91998 9.08984 8.91998C8.36984 8.91998 7.70984 9.08998 7.10984 9.42998C6.52984 9.74998 6.04984 10.21 5.66984 10.81C5.30984 11.39 5.08984 12.08 5.00984 12.88Z" fill="white"/>
<path d="M24.0788 22.3C22.7388 22.3 21.4588 22.08 20.2388 21.64C19.0188 21.2 17.9688 20.55 17.0888 19.69L18.5288 17.08C19.4688 17.84 20.3888 18.4 21.2888 18.76C22.2088 19.12 23.0888 19.3 23.9288 19.3C24.7088 19.3 25.3288 19.16 25.7888 18.88C26.2688 18.6 26.5088 18.18 26.5088 17.62C26.5088 17.24 26.3788 16.95 26.1188 16.75C25.8588 16.53 25.4788 16.34 24.9788 16.18C24.4988 16.02 23.9088 15.84 23.2088 15.64C22.0488 15.26 21.0788 14.89 20.2988 14.53C19.5188 14.17 18.9288 13.72 18.5288 13.18C18.1488 12.62 17.9588 11.91 17.9588 11.05C17.9588 10.01 18.2188 9.11998 18.7388 8.37998C19.2788 7.61998 20.0188 7.02998 20.9588 6.60998C21.9188 6.18998 23.0388 5.97997 24.3188 5.97997C25.4388 5.97997 26.4988 6.15997 27.4988 6.51997C28.4988 6.85997 29.4088 7.41998 30.2288 8.19998L28.6088 10.75C27.8088 10.13 27.0488 9.67998 26.3288 9.39998C25.6088 9.09998 24.8788 8.94998 24.1388 8.94998C23.7188 8.94998 23.3188 8.99998 22.9388 9.09998C22.5788 9.19998 22.2788 9.36998 22.0388 9.60998C21.8188 9.82998 21.7088 10.15 21.7088 10.57C21.7088 10.95 21.8088 11.25 22.0088 11.47C22.2288 11.67 22.5488 11.85 22.9688 12.01C23.4088 12.17 23.9388 12.35 24.5588 12.55C25.8188 12.91 26.8788 13.28 27.7388 13.66C28.6188 14.04 29.2788 14.51 29.7188 15.07C30.1588 15.61 30.3788 16.36 30.3788 17.32C30.3788 18.88 29.8088 20.1 28.6688 20.98C27.5288 21.86 25.9988 22.3 24.0788 22.3Z" fill="white"/>
<path d="M38.933 22.3C37.653 22.3 36.503 22.09 35.483 21.67C34.463 21.23 33.593 20.63 32.873 19.87C32.153 19.09 31.593 18.21 31.193 17.23C30.813 16.25 30.623 15.22 30.623 14.14C30.623 12.66 30.953 11.31 31.613 10.09C32.293 8.84998 33.253 7.85997 34.493 7.11998C35.733 6.37997 37.203 6.00997 38.903 6.00997C40.603 6.00997 42.063 6.37997 43.283 7.11998C44.503 7.85997 45.413 8.82998 46.013 10.03L42.083 11.23C41.743 10.65 41.293 10.21 40.733 9.90998C40.173 9.58998 39.553 9.42998 38.873 9.42998C38.113 9.42998 37.413 9.62997 36.773 10.03C36.153 10.41 35.663 10.96 35.303 11.68C34.943 12.38 34.763 13.2 34.763 14.14C34.763 15.06 34.943 15.88 35.303 16.6C35.683 17.3 36.183 17.86 36.803 18.28C37.423 18.68 38.113 18.88 38.873 18.88C39.353 18.88 39.8031 18.8 40.223 18.64C40.663 18.48 41.053 18.26 41.393 17.98C41.733 17.7 41.983 17.38 42.143 17.02L46.073 18.22C45.713 19 45.183 19.7 44.483 20.32C43.803 20.94 42.993 21.43 42.053 21.79C41.133 22.13 40.093 22.3 38.933 22.3Z" fill="white"/>
<path d="M54.1602 22.3C52.8802 22.3 51.7302 22.09 50.7102 21.67C49.6902 21.23 48.8202 20.63 48.1002 19.87C47.4002 19.11 46.8602 18.24 46.4802 17.26C46.1002 16.28 45.9102 15.25 45.9102 14.17C45.9102 13.07 46.1002 12.03 46.4802 11.05C46.8602 10.07 47.4002 9.19998 48.1002 8.43998C48.8202 7.67998 49.6902 7.08998 50.7102 6.66998C51.7302 6.22997 52.8802 6.00997 54.1602 6.00997C55.4402 6.00997 56.5802 6.22997 57.5802 6.66998C58.6002 7.08998 59.4702 7.67998 60.1902 8.43998C60.9102 9.19998 61.4502 10.07 61.8102 11.05C62.1902 12.03 62.3802 13.07 62.3802 14.17C62.3802 15.25 62.1902 16.28 61.8102 17.26C61.4502 18.24 60.9102 19.11 60.1902 19.87C59.4902 20.63 58.6302 21.23 57.6102 21.67C56.5902 22.09 55.4402 22.3 54.1602 22.3ZM50.0502 14.17C50.0502 15.09 50.2302 15.91 50.5902 16.63C50.9502 17.33 51.4402 17.88 52.0602 18.28C52.6802 18.68 53.3802 18.88 54.1602 18.88C54.9202 18.88 55.6102 18.68 56.2302 18.28C56.8502 17.86 57.3402 17.3 57.7002 16.6C58.0802 15.88 58.2702 15.06 58.2702 14.14C58.2702 13.24 58.0802 12.43 57.7002 11.71C57.3402 10.99 56.8502 10.43 56.2302 10.03C55.6102 9.62997 54.9202 9.42998 54.1602 9.42998C53.3802 9.42998 52.6802 9.63998 52.0602 10.06C51.4402 10.46 50.9502 11.02 50.5902 11.74C50.2302 12.44 50.0502 13.25 50.0502 14.17Z" fill="white"/>
<path d="M63.5635 0.0999756H67.5835V16.96C67.5835 17.68 67.7035 18.17 67.9435 18.43C68.1835 18.67 68.5135 18.79 68.9335 18.79C69.2535 18.79 69.5835 18.75 69.9235 18.67C70.2635 18.59 70.5635 18.49 70.8235 18.37L71.3635 21.43C70.8235 21.69 70.1935 21.89 69.4735 22.03C68.7535 22.17 68.1035 22.24 67.5235 22.24C66.2635 22.24 65.2835 21.91 64.5835 21.25C63.9035 20.57 63.5635 19.61 63.5635 18.37V0.0999756Z" fill="white"/>
<path d="M70.535 17.35C70.535 16.33 70.815 15.44 71.375 14.68C71.955 13.9 72.755 13.3 73.775 12.88C74.795 12.46 75.965 12.25 77.285 12.25C77.945 12.25 78.615 12.3 79.295 12.4C79.975 12.5 80.565 12.66 81.065 12.88V12.04C81.065 11.04 80.765 10.27 80.165 9.72998C79.585 9.18998 78.715 8.91998 77.555 8.91998C76.695 8.91998 75.875 9.06997 75.095 9.36998C74.315 9.66998 73.495 10.11 72.635 10.69L71.345 8.04998C72.385 7.36998 73.445 6.85997 74.525 6.51997C75.625 6.17997 76.775 6.00997 77.975 6.00997C80.215 6.00997 81.955 6.56998 83.195 7.68998C84.455 8.80998 85.085 10.41 85.085 12.49V17.5C85.085 17.92 85.155 18.22 85.295 18.4C85.455 18.58 85.705 18.69 86.045 18.73V22C85.685 22.06 85.355 22.11 85.055 22.15C84.775 22.19 84.535 22.21 84.335 22.21C83.535 22.21 82.925 22.03 82.505 21.67C82.105 21.31 81.855 20.87 81.755 20.35L81.665 19.54C80.985 20.42 80.135 21.1 79.115 21.58C78.095 22.06 77.055 22.3 75.995 22.3C74.955 22.3 74.015 22.09 73.175 21.67C72.355 21.23 71.705 20.64 71.225 19.9C70.765 19.14 70.535 18.29 70.535 17.35ZM80.315 18.16C80.535 17.92 80.715 17.68 80.855 17.44C80.995 17.2 81.065 16.98 81.065 16.78V15.19C80.585 14.99 80.065 14.84 79.505 14.74C78.945 14.62 78.415 14.56 77.915 14.56C76.875 14.56 76.015 14.79 75.335 15.25C74.675 15.69 74.345 16.28 74.345 17.02C74.345 17.42 74.455 17.8 74.675 18.16C74.895 18.52 75.215 18.81 75.635 19.03C76.055 19.25 76.555 19.36 77.135 19.36C77.735 19.36 78.325 19.25 78.905 19.03C79.485 18.79 79.955 18.5 80.315 18.16Z" fill="white"/>
<path d="M96.9416 14.92C97.7816 15.06 98.5116 15.38 99.1316 15.88C99.7516 16.36 100.232 16.98 100.572 17.74C100.932 18.5 101.112 19.34 101.112 20.26C101.112 21.5 100.792 22.58 100.152 23.5C99.5116 24.42 98.6016 25.13 97.4216 25.63C96.2616 26.15 94.8916 26.41 93.3116 26.41C91.7916 26.41 90.4416 26.16 89.2616 25.66C88.1016 25.18 87.1316 24.47 86.3516 23.53L88.6316 20.68C89.1516 21.32 89.7716 21.82 90.4916 22.18C91.2316 22.56 92.1316 22.75 93.1916 22.75C94.4116 22.75 95.3416 22.5 95.9816 22C96.6216 21.52 96.9416 20.79 96.9416 19.81C96.9416 18.77 96.5716 17.97 95.8316 17.41C95.0916 16.85 93.9716 16.57 92.4716 16.57H91.6316V13.57H92.5616C93.7816 13.57 94.7316 13.29 95.4116 12.73C96.1116 12.17 96.4616 11.47 96.4616 10.63C96.4616 10.09 96.3316 9.63997 96.0716 9.27997C95.8116 8.91998 95.4516 8.64998 94.9916 8.46998C94.5516 8.28998 94.0316 8.19998 93.4316 8.19998C92.5316 8.19998 91.7116 8.40998 90.9716 8.82998C90.2316 9.24998 89.6316 9.83998 89.1716 10.6L86.6516 7.77997C87.0716 7.15998 87.6416 6.62998 88.3616 6.18998C89.1016 5.72998 89.9416 5.36998 90.8816 5.10998C91.8416 4.84998 92.8416 4.71998 93.8816 4.71998C95.2416 4.71998 96.4316 4.93997 97.4516 5.37998C98.4916 5.81998 99.3016 6.43998 99.8816 7.23998C100.462 8.03998 100.752 8.96997 100.752 10.03C100.752 10.81 100.592 11.55 100.272 12.25C99.9516 12.95 99.5016 13.54 98.9216 14.02C98.3616 14.48 97.7016 14.78 96.9416 14.92Z" fill="white"/>
<path d="M117.75 14.89C117.75 16.27 117.4 17.52 116.7 18.64C116.02 19.76 115.09 20.65 113.91 21.31C112.75 21.97 111.43 22.3 109.95 22.3C108.35 22.3 106.96 21.91 105.78 21.13C104.62 20.35 103.72 19.23 103.08 17.77C102.44 16.31 102.12 14.56 102.12 12.52C102.12 9.93998 102.45 7.75997 103.11 5.97997C103.79 4.17998 104.75 2.82998 105.99 1.92998C107.23 1.00998 108.69 0.549975 110.37 0.549975C111.71 0.549975 112.94 0.839975 114.06 1.41997C115.2 1.99998 116.16 2.82998 116.94 3.90998L114.63 6.42997C114.15 5.68997 113.53 5.10997 112.77 4.68998C112.01 4.24998 111.19 4.02997 110.31 4.02997C109.41 4.02997 108.63 4.26997 107.97 4.74997C107.31 5.22998 106.8 5.92998 106.44 6.84998C106.08 7.74998 105.88 8.83998 105.84 10.12C106.12 9.63998 106.48 9.22998 106.92 8.88998C107.36 8.52998 107.87 8.25998 108.45 8.07998C109.03 7.87998 109.65 7.77997 110.31 7.77997C111.73 7.77997 113 8.09997 114.12 8.73997C115.24 9.35998 116.12 10.21 116.76 11.29C117.42 12.35 117.75 13.55 117.75 14.89ZM109.95 18.91C110.67 18.91 111.33 18.73 111.93 18.37C112.53 17.99 113.01 17.5 113.37 16.9C113.73 16.28 113.91 15.61 113.91 14.89C113.91 14.17 113.73 13.52 113.37 12.94C113.01 12.34 112.53 11.87 111.93 11.53C111.35 11.17 110.7 10.99 109.98 10.99C109.26 10.99 108.6 11.17 108 11.53C107.4 11.87 106.92 12.34 106.56 12.94C106.22 13.52 106.05 14.17 106.05 14.89C106.05 15.61 106.23 16.28 106.59 16.9C106.95 17.5 107.43 17.99 108.03 18.37C108.63 18.73 109.27 18.91 109.95 18.91Z" fill="white"/>
<path d="M134.413 13.21C134.413 14.97 134.073 16.54 133.393 17.92C132.733 19.28 131.813 20.35 130.633 21.13C129.473 21.91 128.153 22.3 126.673 22.3C125.193 22.3 123.863 21.91 122.683 21.13C121.523 20.35 120.603 19.28 119.923 17.92C119.263 16.54 118.933 14.97 118.933 13.21C118.933 11.45 119.263 9.88998 119.923 8.52997C120.603 7.14998 121.523 6.06998 122.683 5.28998C123.863 4.48998 125.193 4.08998 126.673 4.08998C128.153 4.08998 129.473 4.48998 130.633 5.28998C131.813 6.06998 132.733 7.14998 133.393 8.52997C134.073 9.88998 134.413 11.45 134.413 13.21ZM130.363 13.21C130.363 12.13 130.203 11.19 129.883 10.39C129.583 9.56997 129.153 8.92998 128.593 8.46998C128.033 8.00998 127.393 7.77997 126.673 7.77997C125.933 7.77997 125.283 8.00998 124.723 8.46998C124.163 8.92998 123.723 9.56997 123.403 10.39C123.103 11.19 122.953 12.13 122.953 13.21C122.953 14.29 123.103 15.23 123.403 16.03C123.723 16.83 124.163 17.46 124.723 17.92C125.283 18.38 125.933 18.61 126.673 18.61C127.393 18.61 128.023 18.38 128.563 17.92C129.123 17.46 129.563 16.83 129.883 16.03C130.203 15.21 130.363 14.27 130.363 13.21Z" fill="white"/>
</svg>
