<svg width="83" height="83" viewBox="0 0 83 83" fill="none" xmlns="http://www.w3.org/2000/svg">
<path fill-rule="evenodd" clip-rule="evenodd" d="M70.8237 29.0863C62.8685 37.0713 52.432 41.0794 41.986 41.106C41.9715 30.657 45.9406 20.2022 53.8981 12.215C61.8533 4.23008 72.2898 0.221985 82.7359 0.195351C82.7503 10.6443 78.7812 21.0992 70.8237 29.0863ZM29.217 70.897C21.261 78.8827 10.8234 82.8908 0.376324 82.9167C0.361715 72.4676 4.33089 62.0125 12.2885 54.0252C20.2444 46.0395 30.6821 42.0314 41.1291 42.0055C41.1438 52.4547 37.1746 62.9097 29.217 70.897ZM41.116 41.0879C41.09 30.641 37.0819 20.2036 29.0964 12.2477C21.1091 4.29012 10.654 0.32095 0.204892 0.335559C0.230904 10.7825 4.239 21.2199 12.2246 29.1758C20.2118 37.1333 30.6669 41.1025 41.116 41.0879ZM54.0201 70.8326C62.0069 78.7896 72.4611 82.7588 82.9096 82.7447C82.8835 72.2979 78.8754 61.8607 70.89 53.905C62.9032 45.9479 52.4489 41.9787 42.0004 41.9928C42.0266 52.4396 46.0347 62.8768 54.0201 70.8326Z" fill="#011189"/>
</svg>
