<svg width="44" height="44" viewBox="0 0 44 44" fill="none" xmlns="http://www.w3.org/2000/svg">
<path fill-rule="evenodd" clip-rule="evenodd" d="M22.2588 23.1938C22.0378 28.4115 19.9401 33.5652 15.9637 37.5565C11.7473 41.7885 6.21619 43.9132 0.679699 43.928C0.67188 38.3889 2.77593 32.8466 6.99429 28.6125C11.0455 24.5462 16.3105 22.4254 21.6278 22.2523C16.3057 22.102 11.0278 20.0007 6.9584 15.9464C2.72609 11.7298 0.601409 6.19828 0.586814 0.661472C6.12597 0.653653 11.6683 2.7577 15.9024 6.97606C19.8945 10.9534 22.0115 16.1006 22.2511 21.3187C22.4717 16.1003 24.5694 10.9459 28.5463 6.9542C32.7628 2.72196 38.2942 0.59728 43.8309 0.582606C43.8387 6.12176 41.7347 11.6641 37.5163 15.8982C33.5071 19.9223 28.3092 22.0411 23.0483 22.2523C28.3137 22.4414 33.5239 24.5409 37.5509 28.5529C41.7832 32.7695 43.9079 38.3011 43.9225 43.838C38.3833 43.8458 32.841 41.7417 28.6069 37.5234C24.6181 33.5494 22.5014 28.4074 22.2588 23.1938Z" fill="#EB420E"/>
</svg>
