<svg width="582" height="56" viewBox="0 0 582 56" fill="none" xmlns="http://www.w3.org/2000/svg">
<path fill-rule="evenodd" clip-rule="evenodd" d="M176.089 17.9945C173.398 20.6953 172.056 24.2305 172.061 27.7638C175.593 27.7548 179.122 26.3995 181.812 23.6994C184.503 20.9986 185.845 17.4634 185.841 13.9301C182.308 13.9391 178.779 15.2944 176.089 17.9945ZM162.019 32.1324C159.329 34.8332 157.986 38.3685 157.991 41.9019C161.524 41.893 165.053 40.5377 167.743 37.8375C170.434 35.1366 171.776 31.6013 171.771 28.068C168.239 28.0768 164.71 29.4322 162.019 32.1324ZM171.766 27.7577C168.233 27.7626 164.698 26.4204 161.997 23.7297C159.297 21.0395 157.942 17.5101 157.933 13.9776C161.466 13.9727 165.001 15.3149 167.702 18.0056C170.402 20.6958 171.758 24.2252 171.766 27.7577ZM176.131 37.8156C178.831 40.5062 182.366 41.8483 185.899 41.8436C185.89 38.3112 184.535 34.7819 181.835 32.0918C179.134 29.4012 175.599 28.0591 172.066 28.0637C172.075 31.5962 173.43 35.1255 176.131 37.8156Z" fill="#011189"/>
<path fill-rule="evenodd" clip-rule="evenodd" d="M319.812 23.6994C317.122 26.3995 313.593 27.7548 310.061 27.7638C310.056 24.2305 311.398 20.6953 314.089 17.9945C316.779 15.2944 320.308 13.9391 323.841 13.9301C323.845 17.4634 322.503 20.9986 319.812 23.6994ZM300.019 32.1324C297.329 34.8332 295.986 38.3685 295.991 41.9019C299.524 41.893 303.053 40.5377 305.743 37.8375C308.434 35.1366 309.776 31.6013 309.771 28.068C306.239 28.0768 302.71 29.4322 300.019 32.1324ZM309.766 27.7577C309.758 24.2252 308.402 20.6958 305.702 18.0056C303.001 15.3149 299.466 13.9727 295.933 13.9776C295.942 17.5101 297.297 21.0395 299.997 23.7297C302.698 26.4204 306.233 27.7626 309.766 27.7577ZM314.131 37.8156C316.831 40.5062 320.366 41.8483 323.899 41.8436C323.89 38.3112 322.535 34.7819 319.835 32.0918C317.134 29.4012 313.599 28.0591 310.066 28.0637C310.075 31.5962 311.43 35.1255 314.131 37.8156Z" fill="#011189"/>
<path fill-rule="evenodd" clip-rule="evenodd" d="M469.812 23.6994C467.122 26.3995 463.593 27.7548 460.061 27.7638C460.056 24.2305 461.398 20.6953 464.089 17.9945C466.779 15.2944 470.308 13.9391 473.841 13.9301C473.845 17.4634 472.503 20.9986 469.812 23.6994ZM450.019 32.1324C447.329 34.8332 445.986 38.3685 445.991 41.9019C449.524 41.893 453.053 40.5377 455.743 37.8375C458.434 35.1366 459.776 31.6013 459.771 28.068C456.239 28.0768 452.71 29.4322 450.019 32.1324ZM459.766 27.7577C459.758 24.2252 458.402 20.6958 455.702 18.0056C453.001 15.3149 449.466 13.9727 445.933 13.9776C445.942 17.5101 447.297 21.0395 449.997 23.7297C452.698 26.4204 456.233 27.7626 459.766 27.7577ZM464.131 37.8156C466.831 40.5062 470.366 41.8483 473.899 41.8436C473.89 38.3112 472.535 34.7819 469.835 32.0918C467.134 29.4012 463.599 28.0591 460.066 28.0637C460.075 31.5962 461.43 35.1255 464.131 37.8156Z" fill="#011189"/>
<path fill-rule="evenodd" clip-rule="evenodd" d="M37.8125 23.6994C35.1225 26.3995 31.5935 27.7548 28.0612 27.7638C28.0563 24.2305 29.3984 20.6953 32.0892 17.9945C34.7792 15.2944 38.3082 13.9391 41.8405 13.9301C41.8454 17.4634 40.5033 20.9986 37.8125 23.6994ZM18.0194 32.1324C15.3286 34.8332 13.9865 38.3685 13.9914 41.9019C17.5239 41.893 21.0532 40.5377 23.7434 37.8375C26.4342 35.1366 27.7763 31.6013 27.7714 28.068C24.2389 28.0768 20.7096 29.4322 18.0194 32.1324ZM27.7663 27.7577C27.7575 24.2252 26.4022 20.6958 23.702 18.0056C21.0012 15.3149 17.466 13.9727 13.9328 13.9776C13.9416 17.5101 15.2969 21.0395 17.9972 23.7297C20.698 26.4204 24.2331 27.7626 27.7663 27.7577ZM32.1306 37.8156C34.8311 40.5062 38.366 41.8483 41.899 41.8436C41.8902 38.3112 40.5349 34.7819 37.8346 32.0918C35.1341 29.4012 31.5992 28.0591 28.0662 28.0637C28.075 31.5962 29.4303 35.1255 32.1306 37.8156Z" fill="#011189"/>
<path fill-rule="evenodd" clip-rule="evenodd" d="M220.127 17.9945C217.437 20.6953 216.094 24.2305 216.099 27.7638C219.632 27.7548 223.161 26.3995 225.851 23.6994C228.541 20.9986 229.883 17.4634 229.879 13.9301C226.346 13.9391 222.817 15.2944 220.127 17.9945ZM206.058 32.1324C203.368 34.8332 202.026 38.3685 202.03 41.9019C205.563 41.893 209.092 40.5377 211.782 37.8375C214.473 35.1366 215.815 31.6013 215.81 28.068C212.278 28.0768 208.749 29.4322 206.058 32.1324ZM215.804 27.7577C212.271 27.7626 208.736 26.4204 206.035 23.7297C203.335 21.0395 201.98 17.5101 201.971 13.9776C205.504 13.9727 209.039 15.3149 211.74 18.0056C214.44 20.6958 215.796 24.2252 215.804 27.7577ZM220.169 37.8156C222.869 40.5062 226.404 41.8483 229.937 41.8436C229.928 38.3112 228.573 34.7819 225.873 32.0918C223.172 29.4012 219.637 28.0591 216.104 28.0637C216.113 31.5962 217.468 35.1255 220.169 37.8156Z" fill="#EB420E"/>
<path fill-rule="evenodd" clip-rule="evenodd" d="M363.851 23.6994C361.161 26.3995 357.632 27.7548 354.099 27.7638C354.094 24.2305 355.437 20.6953 358.127 17.9945C360.817 15.2944 364.346 13.9391 367.879 13.9301C367.883 17.4634 366.541 20.9986 363.851 23.6994ZM344.058 32.1324C341.368 34.8332 340.026 38.3685 340.03 41.9019C343.563 41.893 347.092 40.5377 349.782 37.8375C352.473 35.1366 353.815 31.6013 353.81 28.068C350.278 28.0768 346.749 29.4322 344.058 32.1324ZM353.804 27.7577C353.796 24.2252 352.44 20.6958 349.74 18.0056C347.039 15.3149 343.504 13.9727 339.971 13.9776C339.98 17.5101 341.335 21.0395 344.035 23.7297C346.736 26.4204 350.271 27.7626 353.804 27.7577ZM358.169 37.8156C360.869 40.5062 364.404 41.8483 367.937 41.8436C367.928 38.3112 366.573 34.7819 363.873 32.0918C361.172 29.4012 357.637 28.0591 354.104 28.0637C354.113 31.5962 355.468 35.1255 358.169 37.8156Z" fill="#EB420E"/>
<path fill-rule="evenodd" clip-rule="evenodd" d="M513.851 23.6994C511.161 26.3995 507.632 27.7548 504.099 27.7638C504.094 24.2305 505.437 20.6953 508.127 17.9945C510.817 15.2944 514.346 13.9391 517.879 13.9301C517.883 17.4634 516.541 20.9986 513.851 23.6994ZM494.058 32.1324C491.368 34.8332 490.026 38.3685 490.03 41.9019C493.563 41.893 497.092 40.5377 499.782 37.8375C502.473 35.1366 503.815 31.6013 503.81 28.068C500.278 28.0768 496.749 29.4322 494.058 32.1324ZM503.804 27.7577C503.796 24.2252 502.44 20.6958 499.74 18.0056C497.039 15.3149 493.504 13.9727 489.971 13.9776C489.98 17.5101 491.335 21.0395 494.035 23.7297C496.736 26.4204 500.271 27.7626 503.804 27.7577ZM508.169 37.8156C510.869 40.5062 514.404 41.8483 517.937 41.8436C517.928 38.3112 516.573 34.7819 513.873 32.0918C511.172 29.4012 507.637 28.0591 504.104 28.0637C504.113 31.5962 505.468 35.1255 508.169 37.8156Z" fill="#EB420E"/>
<path fill-rule="evenodd" clip-rule="evenodd" d="M81.8506 23.6994C79.1606 26.3995 75.6315 27.7548 72.0993 27.7638C72.0944 24.2305 73.4365 20.6953 76.1273 17.9945C78.8173 15.2944 82.3463 13.9391 85.8786 13.9301C85.8835 17.4634 84.5413 20.9986 81.8506 23.6994ZM62.0585 32.1324C59.3677 34.8332 58.0255 38.3685 58.0305 41.9019C61.563 41.893 65.0923 40.5377 67.7824 37.8375C70.4733 35.1366 71.8154 31.6013 71.8105 28.068C68.278 28.0768 64.7487 29.4322 62.0585 32.1324ZM71.8044 27.7577C71.7956 24.2252 70.4403 20.6958 67.74 18.0056C65.0393 15.3149 61.5041 13.9727 57.9709 13.9776C57.9797 17.5101 59.335 21.0395 62.0353 23.7297C64.736 26.4204 68.2712 27.7626 71.8044 27.7577ZM76.1687 37.8156C78.8693 40.5062 82.4042 41.8483 85.9371 41.8436C85.9283 38.3112 84.573 34.7819 81.8728 32.0918C79.1722 29.4012 75.6373 28.0591 72.1043 28.0637C72.1131 31.5962 73.4685 35.1255 76.1687 37.8156Z" fill="#EB420E"/>
<path fill-rule="evenodd" clip-rule="evenodd" d="M270.263 17.994C267.572 20.6948 266.23 24.23 266.235 27.7633C269.767 27.7543 273.296 26.399 275.986 23.6989C278.677 20.9981 280.019 17.4629 280.014 13.9296C276.482 13.9386 272.953 15.2939 270.263 17.994ZM261.918 37.837C259.228 40.5372 255.698 41.8925 252.166 41.9014C252.161 38.3681 253.503 34.8327 256.194 32.1319C258.884 29.4317 262.413 28.0764 265.946 28.0675C265.951 31.6008 264.609 35.1361 261.918 37.837ZM265.941 27.7572C265.932 24.2247 264.577 20.6953 261.876 18.0051C259.176 15.3144 255.64 13.9722 252.107 13.9771C252.116 17.5096 253.471 21.039 256.172 23.7292C258.872 26.4199 262.407 27.7621 265.941 27.7572ZM270.304 37.8151C273.005 40.5057 276.54 41.8478 280.073 41.8432C280.064 38.3107 278.708 34.7814 276.008 32.0913C273.308 29.4007 269.773 28.0586 266.24 28.0632C266.249 31.5957 267.604 35.125 270.304 37.8151Z" fill="#A2BF00"/>
<path fill-rule="evenodd" clip-rule="evenodd" d="M413.986 23.6989C411.296 26.399 407.767 27.7543 404.235 27.7633C404.23 24.23 405.572 20.6948 408.263 17.994C410.953 15.2939 414.482 13.9386 418.014 13.9296C418.019 17.4629 416.677 20.9981 413.986 23.6989ZM399.918 37.837C397.228 40.5372 393.698 41.8925 390.166 41.9014C390.161 38.3681 391.503 34.8327 394.194 32.1319C396.884 29.4317 400.413 28.0764 403.946 28.0675C403.951 31.6008 402.609 35.1361 399.918 37.837ZM403.941 27.7572C403.932 24.2247 402.577 20.6953 399.876 18.0051C397.176 15.3144 393.64 13.9722 390.107 13.9771C390.116 17.5096 391.471 21.039 394.172 23.7292C396.872 26.4199 400.407 27.7621 403.941 27.7572ZM408.304 37.8151C411.005 40.5057 414.54 41.8478 418.073 41.8432C418.064 38.3107 416.708 34.7814 414.008 32.0913C411.308 29.4007 407.773 28.0586 404.24 28.0632C404.249 31.5957 405.604 35.125 408.304 37.8151Z" fill="#A2BF00"/>
<path fill-rule="evenodd" clip-rule="evenodd" d="M563.986 23.6989C561.296 26.399 557.767 27.7543 554.235 27.7633C554.23 24.23 555.572 20.6948 558.263 17.994C560.953 15.2939 564.482 13.9386 568.014 13.9296C568.019 17.4629 566.677 20.9981 563.986 23.6989ZM549.918 37.837C547.228 40.5372 543.698 41.8925 540.166 41.9014C540.161 38.3681 541.503 34.8327 544.194 32.1319C546.884 29.4317 550.413 28.0764 553.946 28.0675C553.951 31.6008 552.609 35.1361 549.918 37.837ZM553.941 27.7572C553.932 24.2247 552.577 20.6953 549.876 18.0051C547.176 15.3144 543.64 13.9722 540.107 13.9771C540.116 17.5096 541.471 21.039 544.172 23.7292C546.872 26.4199 550.407 27.7621 553.941 27.7572ZM558.304 37.8151C561.005 40.5057 564.54 41.8478 568.073 41.8432C568.064 38.3107 566.708 34.7814 564.008 32.0913C561.308 29.4007 557.773 28.0586 554.24 28.0632C554.249 31.5957 555.604 35.125 558.304 37.8151Z" fill="#A2BF00"/>
<path fill-rule="evenodd" clip-rule="evenodd" d="M131.986 23.6989C129.296 26.399 125.767 27.7543 122.235 27.7633C122.23 24.23 123.572 20.6948 126.263 17.994C128.953 15.2939 132.482 13.9386 136.014 13.9296C136.019 17.4629 134.677 20.9981 131.986 23.6989ZM117.918 37.837C115.228 40.5372 111.698 41.8925 108.166 41.9014C108.161 38.3681 109.503 34.8327 112.194 32.1319C114.884 29.4317 118.413 28.0764 121.946 28.0675C121.951 31.6008 120.609 35.1361 117.918 37.837ZM121.941 27.7572C121.932 24.2247 120.577 20.6953 117.876 18.0051C115.176 15.3144 111.64 13.9722 108.107 13.9771C108.116 17.5096 109.471 21.039 112.172 23.7292C114.872 26.4199 118.407 27.7621 121.941 27.7572ZM126.304 37.8151C129.005 40.5057 132.54 41.8478 136.073 41.8432C136.064 38.3107 134.708 34.7814 132.008 32.0913C129.308 29.4007 125.773 28.0586 122.24 28.0632C122.249 31.5957 123.604 35.125 126.304 37.8151Z" fill="#A2BF00"/>
</svg>
