<svg width="26" height="26" viewBox="0 0 26 26" fill="none" xmlns="http://www.w3.org/2000/svg">
<path d="M11.9167 16.25L8.66667 13M8.66667 13L11.9167 9.75M8.66667 13H17.3333M3.25 13C3.25 11.7196 3.50219 10.4518 3.99217 9.26884C4.48216 8.08591 5.20034 7.01108 6.10571 6.10571C7.01108 5.20034 8.08591 4.48216 9.26884 3.99217C10.4518 3.50219 11.7196 3.25 13 3.25C14.2804 3.25 15.5482 3.50219 16.7312 3.99217C17.9141 4.48216 18.9889 5.20034 19.8943 6.10571C20.7997 7.01108 21.5178 8.08591 22.0078 9.26884C22.4978 10.4518 22.75 11.7196 22.75 13C22.75 15.5859 21.7228 18.0658 19.8943 19.8943C18.0658 21.7228 15.5859 22.75 13 22.75C10.4141 22.75 7.93419 21.7228 6.10571 19.8943C4.27723 18.0658 3.25 15.5859 3.25 13Z" stroke="#6A7AF5" stroke-width="2" stroke-linecap="round" stroke-linejoin="round"/>
</svg>
