<svg width="42" height="42" viewBox="0 0 42 42" fill="none" xmlns="http://www.w3.org/2000/svg">
<path fill-rule="evenodd" clip-rule="evenodd" d="M20.7617 21.1238C20.678 26.2164 18.6978 31.2843 14.8191 35.1774C10.8482 39.1632 5.63865 41.1636 0.424418 41.1764C0.417157 35.9613 2.39817 30.7432 6.36975 26.7568C10.3389 22.7729 15.5455 20.7725 20.7574 20.7578C20.7574 20.7556 20.7574 20.7533 20.7574 20.7511C20.7576 20.7511 20.7579 20.7511 20.7581 20.7511C20.7539 15.5399 22.7349 10.3267 26.7035 6.34328C30.674 2.35797 35.8828 0.357537 41.0965 0.344276C41.1037 5.55936 39.1227 10.7774 35.1512 14.7638C31.3019 18.6274 26.2886 20.6255 21.2355 20.756C26.2901 20.8669 31.312 22.8463 35.1765 26.6964C39.162 30.6672 41.1625 35.8765 41.1755 41.0905C35.9605 41.0976 30.7427 39.1166 26.7564 35.1452C22.8658 31.269 20.8669 26.2127 20.7617 21.1238ZM20.7567 20.7535C15.5417 20.7607 10.3236 18.7797 6.33726 14.8081C2.35165 10.8374 0.351211 5.62801 0.338246 0.413946C5.55333 0.406711 10.7713 2.38772 14.7577 6.35928C18.7433 10.3301 20.7438 15.5394 20.7567 20.7535Z" fill="#A2BF00"/>
</svg>
