<svg width="846" height="83" viewBox="0 0 846 83" fill="none" xmlns="http://www.w3.org/2000/svg">
<path d="M0 41L846 41.0001" stroke="#6A7AF5" stroke-width="1.8"/>
<path fill-rule="evenodd" clip-rule="evenodd" d="M359.364 26.5596C355.392 30.546 353.411 35.764 353.418 40.9791C358.632 40.9658 363.841 38.9653 367.811 34.98C371.783 30.9937 373.764 25.7757 373.757 20.5606C368.543 20.5739 363.334 22.5743 359.364 26.5596ZM338.597 47.4271C334.625 51.4135 332.644 56.6316 332.651 61.8468C337.866 61.8338 343.075 59.8334 347.046 55.8477C351.017 51.8613 352.998 46.6432 352.991 41.428C347.777 41.441 342.568 43.4414 338.597 47.4271ZM352.984 40.97C347.769 40.9771 342.551 38.9961 338.564 35.0246C334.579 31.0539 332.578 25.8446 332.565 20.6306C337.78 20.6234 342.998 22.6044 346.985 26.5759C350.97 30.5467 352.971 35.7559 352.984 40.97ZM367.844 47.3671C371.829 51.3378 373.83 56.547 373.843 61.7609C368.628 61.7679 363.41 59.7869 359.424 55.8156C355.439 51.8449 353.438 46.6357 353.425 41.4217C358.64 41.4148 363.858 43.3958 367.844 47.3671Z" fill="#011189"/>
<path fill-rule="evenodd" clip-rule="evenodd" d="M424.364 26.5596C420.392 30.546 418.411 35.764 418.418 40.9791C423.632 40.9658 428.841 38.9653 432.811 34.98C436.783 30.9937 438.764 25.7757 438.757 20.5606C433.543 20.5739 428.334 22.5743 424.364 26.5596ZM403.597 47.4271C399.625 51.4135 397.644 56.6316 397.651 61.8468C402.866 61.8338 408.075 59.8334 412.046 55.8477C416.017 51.8613 417.998 46.6432 417.991 41.428C412.777 41.441 407.568 43.4414 403.597 47.4271ZM417.984 40.97C412.769 40.9771 407.551 38.9961 403.564 35.0246C399.579 31.0539 397.578 25.8446 397.565 20.6306C402.78 20.6234 407.998 22.6044 411.985 26.5759C415.97 30.5467 417.971 35.7559 417.984 40.97ZM432.844 47.3671C436.829 51.3378 438.83 56.547 438.843 61.7609C433.628 61.7679 428.41 59.7869 424.424 55.8156C420.439 51.8449 418.438 46.6357 418.425 41.4217C423.64 41.4148 428.858 43.3958 432.844 47.3671Z" fill="#EB420E"/>
<path fill-rule="evenodd" clip-rule="evenodd" d="M498.364 26.5596C494.392 30.546 492.411 35.764 492.418 40.9791C497.632 40.9658 502.841 38.9653 506.811 34.98C510.783 30.9937 512.764 25.7757 512.757 20.5606C507.543 20.5739 502.334 22.5743 498.364 26.5596ZM477.597 47.4271C473.625 51.4135 471.644 56.6316 471.651 61.8468C476.866 61.8338 482.075 59.8334 486.046 55.8477C490.017 51.8613 491.998 46.6432 491.991 41.428C486.777 41.441 481.568 43.4414 477.597 47.4271ZM491.984 40.97C486.769 40.9771 481.551 38.9961 477.564 35.0246C473.579 31.0539 471.578 25.8446 471.565 20.6306C476.78 20.6234 481.998 22.6044 485.985 26.5759C489.97 30.5467 491.971 35.7559 491.984 40.97ZM506.844 47.3671C510.829 51.3378 512.83 56.547 512.843 61.7609C507.628 61.7679 502.41 59.7869 498.424 55.8156C494.439 51.8449 492.438 46.6357 492.425 41.4217C497.64 41.4148 502.858 43.3958 506.844 47.3671Z" fill="#A2BF00"/>
</svg>
